<svg width="185" height="38" viewBox="0 0 185 38" fill="none" xmlns="http://www.w3.org/2000/svg">
<path d="M183.703 22.0737C183.414 22.0762 183.092 22.2173 182.869 22.4624C181.369 23.9625 177.111 27.1781 174.95 27.2004C173.693 27.2128 173.235 26.5271 173.222 25.2498C173.21 23.9031 173.774 22.45 174.307 20.8558C174.339 20.7865 174.336 20.7172 174.336 20.6479C174.334 20.3706 174.235 20.1651 174.007 20.0636C173.91 20.029 172.846 20.0067 172.749 20.0067C172.556 20.0092 172.363 20.1131 172.237 20.3211C172.111 20.529 171.984 20.7716 171.856 21.0167C171.499 20.7444 170.432 20.6157 169.982 20.6206C168.888 20.6305 167.945 21.4994 167.397 22.5787C167.385 22.5911 167.37 22.601 167.358 22.6159C165.412 24.7052 161.897 28.1559 159.028 28.1857C157.642 28.2006 156.921 27.1386 156.899 25.032C156.889 24.168 157.01 23.3733 157.199 22.6481L161.328 22.6059C161.877 22.601 162.355 22.148 162.447 21.5588C162.444 21.4202 162.347 21.284 162.187 21.2865L157.543 21.3335C157.855 20.2617 158.738 18.3184 159.308 17.2094C159.369 17.0361 159.273 16.8653 159.11 16.8653C158.335 16.8728 157.466 16.9866 157.055 17.7837C156.518 18.8927 155.951 20.2444 155.639 21.3533L153.607 21.3732C153.025 21.3781 152.579 21.9004 152.651 22.4871C152.651 22.5911 152.75 22.6926 152.847 22.6926L154.824 22.6728C154.81 22.6852 154.795 22.6951 154.782 22.7074C152.77 24.7645 148.418 28.1559 145.485 28.1857C144.259 28.1981 143.638 27.2722 143.625 26.0295C143.613 24.7522 143.856 23.3709 144.326 21.846C144.388 21.6034 144.289 21.3286 144.061 21.2272L142.86 20.5835C142.564 20.7791 142.279 21.6826 142.063 22.6976C141.942 22.7743 141.826 22.8634 141.724 22.9748C140.063 24.6829 136.709 27.7178 134.387 27.7425C133.58 27.75 133.028 27.4109 132.669 26.792C132.142 25.7622 131.872 24.5566 131.859 23.1778C134.097 21.3261 138.056 17.0089 138.023 13.9022C138.011 12.7635 137.39 11.9416 136.328 11.9515C132.033 11.9936 130.062 19.0289 129.991 22.8436C128.119 24.5913 125.547 26.4504 123.376 26.4727C122.73 26.4801 122.309 26.2078 122.111 25.6904C123.591 25.3661 125.126 24.0393 125.141 22.2767C125.163 21.3435 124.416 20.7989 123.48 20.8088C122.126 20.8211 121.027 21.846 120.48 23.1357C120.455 23.153 120.43 23.1678 120.405 23.1877C118.744 24.7572 116.625 25.6409 114.469 26.1806C114.722 25.5914 114.811 24.97 114.806 24.3487C114.794 23.21 114.108 22.2148 112.979 22.2272C111.4 22.242 110.093 23.7744 109.494 25.1953C109.39 24.6086 109.32 24.0244 109.313 23.4031C111.489 21.5861 115.509 17.2342 115.477 14.1968C115.462 12.6793 114.521 12.204 113.199 12.2189C112.199 12.2288 111.273 13.0308 110.635 13.7636C108.553 16.0707 107.498 19.7938 107.446 23.0194C107.365 23.0664 107.283 23.1183 107.211 23.1852C105.293 24.8265 102.372 26.235 99.9209 26.2598C99.0496 26.2696 98.3366 25.9998 97.8489 25.4874C97.9727 25.0368 98.0024 24.6234 97.9975 24.2101C97.99 23.3808 97.7153 21.7964 96.7152 21.8089C96.6508 21.8089 96.2325 21.8138 96.1681 21.8138C96.1013 21.7098 95.5864 21.6454 95.3264 21.6504C93.5862 21.6678 92.6084 23.955 92.6232 25.5765C92.6381 27.0246 93.4574 28.4332 94.9427 28.4184C95.975 28.4085 96.839 27.6733 97.3786 26.7722C98.1262 27.3168 99.0322 27.5842 100.032 27.5742C102.399 27.5495 105.409 26.2226 107.535 24.5542C107.706 25.9701 108.139 28.0446 108.974 28.0346C109.328 28.0322 110.164 27.8143 110.226 27.4356C110.313 26.3637 110.689 25.3958 111.325 24.5591C111.516 24.3487 111.929 23.7249 112.511 23.7199C112.608 23.7199 112.672 23.7174 112.736 23.7521C113.157 23.8512 112.942 24.8537 112.878 25.0616C112.722 25.6508 111.509 26.938 110.867 27.2549C110.226 27.6064 109.875 28.0248 109.88 28.5422C109.885 29.0596 110.338 29.2625 110.759 29.2575C111.759 29.2477 112.848 28.5471 113.484 27.7797C115.935 27.2499 118.158 26.4974 120.111 25.0815C120.173 26.5593 121.321 27.8045 122.742 27.7896C125.371 27.7623 127.933 26.2894 130.07 24.4699C130.335 26.7499 131.298 29.0818 133.756 29.0571C136.853 29.0249 139.474 26.8935 141.712 24.767C141.717 24.7621 141.722 24.7572 141.729 24.7497C141.682 25.1606 141.655 25.5097 141.657 25.7325C141.68 27.8366 142.697 29.5868 144.791 29.567C148.512 29.5298 152.25 27.0544 155.072 24.3141C155.05 24.6284 155.035 24.9403 155.04 25.2547C155.067 28.0149 155.986 29.5595 158.664 29.5323C159.632 29.5225 160.501 29.307 160.726 29.2006C162.773 28.3985 165.051 26.6608 166.932 24.8982C167.051 25.8092 167.64 26.4751 168.539 26.4652C169.571 26.4554 170.816 25.1656 171.388 24.3314C171.358 24.5739 171.328 24.814 171.331 25.0567C171.351 26.9207 172.398 28.6337 174.269 28.6165C177.656 28.5125 182.297 25.0839 184.624 22.4376C184.347 22.205 184.025 22.0688 183.703 22.0737ZM110.372 17.702C110.813 16.5584 112.427 13.5754 113.813 13.5606C114.071 13.5581 114.234 13.7636 114.239 14.2116C114.261 16.4891 110.88 20.2146 109.412 21.6108C109.558 20.2295 109.9 18.9497 110.372 17.702ZM95.3363 26.9306C94.6902 26.938 94.4897 26.1113 94.4848 25.5592C94.4749 24.5937 94.8833 23.4154 95.7819 23.0615C95.7918 24.0615 96.027 24.9577 96.4528 25.7449C96.1706 26.5073 95.7869 26.9256 95.3363 26.9306ZM123.772 22.1925C123.869 22.1925 123.933 22.2593 123.936 22.3633C123.945 23.2248 122.727 24.1358 122.019 24.3487C122.205 23.5541 122.965 22.2346 123.772 22.1925ZM132.916 17.4768C133.357 16.3678 134.939 13.3848 136.328 13.3699C136.617 13.3675 136.781 13.5729 136.786 13.9863C136.808 16.2291 133.491 19.9201 131.924 21.3855C132.105 20.0042 132.446 18.7244 132.916 17.4768ZM168.989 24.9478C168.828 24.9502 168.761 24.8116 168.759 24.5022C168.749 23.5021 169.635 21.94 170.635 21.9302C170.893 21.9277 171.088 21.9945 171.22 22.1653C170.903 22.7199 169.539 24.9428 168.989 24.9478Z" fill="white"/>
<path d="M89.7514 13.0787C89.2687 12.5613 88.1721 12.1479 87.4616 12.1479C83.4934 12.1479 79.6565 18.3589 78.5598 20.4977L79.2059 18.703C80.1738 16.1161 81.3992 12.3534 81.3992 9.48927C81.3992 7.28115 80.206 5.79586 78.0771 5.79586C73.4331 5.79586 69.9501 10.7295 67.6925 14.4922C65.7567 17.7004 64.1451 20.9804 62.791 24.3966C63.2093 22.7058 63.7267 21.1191 64.306 19.6684C65.4026 16.7697 66.8211 13.1802 66.8211 10.0413C66.8211 6.21174 65.5314 1.9762 61.0087 0.37209C58.9986 -0.340847 42.4971 -0.14776 38.4472 2.00096C36.6871 2.93421 35.947 4.90221 35.6449 6.75882C35.4816 7.98418 35.4097 9.55611 36.1574 10.6156C36.905 11.638 38.3927 11.9351 39.5686 12.1059C43.8585 12.643 48.6907 12.8089 52.7777 14.2818C53.7506 14.6779 55.2161 15.3636 55.075 16.6335C54.768 19.8145 53.2728 23.0029 51.993 25.9091C51.4435 26.9983 50.9533 28.4316 49.9779 29.2064C41.7519 29.3228 33.4987 29.2956 25.2702 29.3549C19.8291 29.2782 14.3856 29.3228 8.94693 29.3501C8.18201 29.3054 7.21657 29.3772 6.52839 29.0035C5.83525 28.1568 5.3971 27.0577 4.92923 26.075C3.80041 23.4881 2.43148 21.1414 1.82746 18.3416C2.31513 18.1386 2.81022 17.9405 3.30037 17.7524C4.88715 17.3068 6.60265 17.1533 8.22904 16.9182C9.16971 19.2031 10.098 21.8568 12.0809 23.451C13.5909 24.6936 15.6208 24.8694 17.4972 24.9387C21.5026 25.0427 25.5202 25.0823 29.5255 25.0872C33.7784 25.154 38.0363 25.1763 42.2941 25.164C43.9527 25.1194 45.943 25.065 47.2104 23.8396C48.3639 22.7133 48.9308 20.9284 49.166 19.3714C49.3319 18.3044 49.1264 17.2673 48.1486 16.6781C47.0816 16.1013 45.7424 15.9255 44.5591 15.7052C38.7913 14.7719 32.7139 14.616 26.8843 14.4526C21.2847 14.2447 15.658 14.5418 10.0609 14.7942L9.70442 14.5913C8.71918 11.435 8.03595 8.16984 7.38985 4.92944C7.65225 4.08778 7.76365 3.26345 8.687 2.89708C11.0065 2.05047 13.7543 2.06284 16.2051 2.04056C19.9529 2.08511 23.7057 2.46386 27.4313 2.86985C29.5355 3.07778 31.6248 3.57784 33.7339 3.64467C34.4097 2.89213 34.828 2.8748 34.1126 1.8747C33.3056 1.51328 32.3501 1.41179 31.4811 1.27564C27.0204 0.713706 22.6116 0.198807 18.1136 0.0874103C15.497 -0.0264616 12.8012 0.00571962 10.202 0.39932C8.87761 0.641917 7.41213 0.976106 6.4764 2.02571C5.65207 2.92678 5.56295 3.99866 5.43175 5.16213C5.86496 8.48176 6.81554 11.7618 7.65226 15.0022C5.51344 15.2497 3.47117 15.4403 1.45861 16.2548C0.651606 16.7449 0.0748208 17.5074 0.0178848 18.4703C-0.162825 20.4111 1.06749 22.493 1.8324 24.2332C2.82012 26.2062 3.56277 28.4366 4.86982 30.2214C5.79813 31.4022 7.13488 31.3106 8.49639 31.3749C12.6626 31.3527 16.8313 31.3874 20.9951 31.3576C30.8029 31.2908 40.638 31.4294 50.4408 31.3354C51.5796 30.7585 52.2603 30.1595 52.8149 28.996C54.4536 25.6714 56.0553 22.1884 56.9068 18.5669C57.1643 17.2474 57.4613 15.7027 56.6147 14.5268C55.6765 13.1877 53.9164 12.44 52.4064 11.9549C48.7848 10.8458 44.6928 10.5661 40.9326 10.1849C39.8334 10.0536 38.7938 9.95961 37.7936 9.44718C37.4248 7.99655 37.6773 6.38007 38.3309 5.04084C38.8631 3.88232 40.1701 3.43673 41.2816 3.0357C55.6047 1.4811 58.1941 2.09255 59.3279 2.12967C63.1549 2.2584 64.2144 6.97667 64.2144 10.0463C64.2144 11.2542 63.957 12.5985 63.4718 14.153C63.0855 15.4651 62.536 17.0518 61.8256 18.9481C60.7933 21.6735 59.7933 24.6763 59.7933 27.6444C59.7933 28.7138 59.8898 29.6124 60.0829 30.3352C60.2759 31.0606 60.6299 31.4047 61.2117 31.4047C61.6944 31.4047 62.7266 31.1274 62.8232 30.6125C64.0164 24.4708 69.2742 13.7743 74.0148 9.4249C75.2402 8.32084 76.3368 7.76881 77.3369 7.76881C78.4335 7.76881 78.8197 8.3555 78.8197 9.56353C78.8197 11.9103 77.5944 15.5691 76.8195 17.7425L76.3987 18.9505C74.948 23.0227 74.2376 25.8522 74.2376 27.4389C74.2376 28.8525 75.3343 29.5431 76.0768 29.5431C76.4631 29.5431 76.7552 29.3698 76.8839 28.9565C78.2379 25.367 82.6245 14.361 87.1398 14.361C88.0755 14.361 88.1399 15.3958 88.1399 16.1557C88.1399 17.3291 87.7215 19.1931 86.8823 21.7107L86.5606 22.7108C85.7857 25.0229 85.5852 27.7484 85.5852 29.3005C85.5852 30.3352 85.7461 31.1299 86.068 31.7166C86.3576 32.2686 87.4864 32.5458 87.875 32.5458C88.3899 32.5458 88.8107 32.0978 88.8107 31.5804C88.8107 31.3725 88.7463 31.1671 88.6177 30.9591C88.328 30.511 88.1646 29.9243 88.1646 29.2336C88.1646 27.4389 88.5582 24.8867 89.1078 23.2307C89.6227 21.5745 90.0114 20.2626 90.301 19.1931C90.5585 18.0545 90.7193 17.089 90.7193 16.1903C90.7193 14.8387 90.3975 13.8041 89.7514 13.0787ZM13.9598 16.5816C18.9429 16.3835 23.9162 16.4454 28.8993 16.4776C34.932 16.8067 41.4153 16.9677 47.2896 18.4381C46.9826 19.5769 46.7524 20.8616 46.1583 21.8889C45.4503 23.0202 43.9155 22.9757 42.7421 23.0772C37.4347 23.1812 32.1198 23.0994 26.8125 23.1167C25.3791 23.0623 23.9483 23.0177 22.5151 23.0004C20.0767 22.8964 17.5319 23.0871 15.1356 22.6365C12.4769 22.1043 11.3233 19.0545 10.3678 16.8464C11.5635 16.7251 12.7617 16.6434 13.9598 16.5816Z" fill="white"/>
<path d="M43.4515 37.1049C44.347 37.1049 45.0729 36.379 45.0729 35.4835C45.0729 34.588 44.347 33.8621 43.4515 33.8621C42.556 33.8621 41.8301 34.588 41.8301 35.4835C41.8301 36.379 42.556 37.1049 43.4515 37.1049Z" fill="white"/>
<path d="M10.5843 37.1049C11.4798 37.1049 12.2058 36.379 12.2058 35.4835C12.2058 34.588 11.4798 33.8621 10.5843 33.8621C9.68883 33.8621 8.96289 34.588 8.96289 35.4835C8.96289 36.379 9.68883 37.1049 10.5843 37.1049Z" fill="white"/>
<path d="M94.7876 19.2678C95.4329 19.2678 95.956 18.7446 95.956 18.0993C95.956 17.454 95.4329 16.9309 94.7876 16.9309C94.1423 16.9309 93.6191 17.454 93.6191 18.0993C93.6191 18.7446 94.1423 19.2678 94.7876 19.2678Z" fill="white"/>
<path d="M98.77 19.2678C99.4153 19.2678 99.9384 18.7446 99.9384 18.0993C99.9384 17.454 99.4153 16.9309 98.77 16.9309C98.1247 16.9309 97.6016 17.454 97.6016 18.0993C97.6016 18.7446 98.1247 19.2678 98.77 19.2678Z" fill="white"/>
</svg>
