<svg width="364" height="68" viewBox="0 0 364 68" fill="none" xmlns="http://www.w3.org/2000/svg">
<g clip-path="url(#clip0_135_1727)">
<path d="M363.019 59.961C362.277 61.6649 361.016 64.5542 360.721 65.1469C360.276 65.9618 359.237 66.925 357.012 66.925H340.105V4.17558C340.105 2.32347 341.589 0.841809 343.442 0.841809H361.61L359.237 5.95367C358.866 6.7686 357.828 7.80574 355.678 7.80574H350.264C349.3 7.80574 347.446 8.47257 347.446 9.43567V30.4014H358.94C358.199 32.1053 357.012 34.9947 356.716 35.5873C356.271 36.4023 355.307 37.3653 353.156 37.3653H350.338C349.449 37.3653 347.521 38.1062 347.521 38.9952V59.961H363.019ZM77.9671 9.13927V28.9938C77.9671 32.6981 75.5199 33.8834 75.5199 33.8834C75.5199 33.8834 77.9671 35.0688 77.9671 38.773V66.925H70.6258V41.588C70.6258 38.4025 68.9202 37.3653 67.1404 37.3653H63.581V66.925H56.2396V0.841809H69.7359C74.1852 0.841809 77.9671 4.54606 77.9671 9.13927ZM70.6258 11.2136C70.6258 8.76885 68.9202 7.80574 67.1404 7.80574H63.581V30.4014H67.1404C68.9202 30.4014 70.6258 29.6605 70.6258 26.6231V11.2136ZM124.091 0.175171H118.752C114.006 0.175171 110.225 3.9534 110.225 8.54662V59.1461C110.225 63.7393 114.006 67.5176 118.752 67.5176H124.091C128.615 67.4435 132.249 63.6652 132.249 59.1461V43.1439L126.687 45.737C125.871 46.1073 124.907 47.1444 124.907 49.2929V57.4421C124.907 59.4424 123.276 60.9982 121.199 60.9982C119.197 60.9982 117.64 59.3684 117.64 57.4421V10.1765C117.64 8.17621 119.271 6.62043 121.199 6.62043C123.276 6.62043 124.907 8.2503 124.907 10.1765V24.4746L130.469 21.8817C131.285 21.5113 132.249 20.4741 132.249 18.3258V8.47251C132.249 4.02747 128.615 0.249255 124.091 0.175171ZM199.803 3.65704L193.13 46.3294L186.011 0.841809H180.82C179.188 0.841809 177.779 2.02719 177.482 3.65704L170.81 46.3294L163.69 0.841809H155.682L167.027 66.925H174.887L182.08 19.0667L189.348 66.925H197.208L208.405 0.841809H203.215C201.509 0.841809 200.1 2.02719 199.803 3.65704ZM15.9734 0.841809H11.0051L0.994141 66.925H9.00292L14.9353 21.4372L20.8677 66.925H28.8765L19.2363 3.65704C19.0138 2.02719 17.6049 0.841809 15.9734 0.841809ZM307.848 9.13927V28.9938C307.848 32.6981 305.401 33.8834 305.401 33.8834C305.401 33.8834 307.848 35.0688 307.848 38.773V66.925H300.506V41.588C300.506 38.4025 298.8 37.3653 297.021 37.3653H293.462V66.925H286.121V0.841809H299.616C304.065 0.841809 307.848 4.54606 307.848 9.13927ZM300.506 11.2136C300.506 8.76885 298.8 7.80574 297.021 7.80574H293.462V30.4014H297.021C298.8 30.4014 300.506 29.6605 300.506 26.6231V11.2136ZM245.854 0.841809H240.886L230.874 66.925H238.884L244.816 21.4372L250.748 66.925H258.757L249.117 3.65704C248.969 2.02719 247.56 0.841809 245.854 0.841809Z" fill="#ADADAD"/>
</g>
<defs>
<clipPath id="clip0_135_1727">
<rect width="362.613" height="67.3424" fill="white" transform="translate(0.40625 0.175171)"/>
</clipPath>
</defs>
</svg>
