<svg width="294" height="63" viewBox="0 0 294 63" fill="none" xmlns="http://www.w3.org/2000/svg">
<g clip-path="url(#clip0_135_1716)">
<path d="M241.435 62.0851C236.611 62.0851 231.777 62.2861 226.969 62.0149C223.618 61.8299 220.126 61.447 216.978 60.3557C209.678 57.8446 207.015 52.8671 207.241 43.4639C207.399 36.7984 210.859 32.1655 217.613 30.0628C220.042 29.2968 222.567 28.88 225.112 28.8247C235.04 28.6875 244.971 28.8247 254.899 28.7258C258.015 28.6907 259.79 29.6192 259.767 32.9951C259.745 36.272 258.428 37.9535 254.911 37.9088C246.264 37.8003 237.612 37.8003 228.956 37.9088C226.694 37.9455 224.444 38.2421 222.25 38.7927C218.708 39.6701 217.489 42.06 217.53 45.7676C217.571 49.4753 219.273 51.3546 222.497 52.13C224.563 52.615 226.676 52.8644 228.797 52.8734C237.167 52.9564 245.536 52.9692 253.902 52.8734C256.163 52.8375 258.412 52.5268 260.599 51.9481C263.513 51.1791 265.042 49.2264 264.941 46.0006C264.804 40.8954 264.941 35.7902 264.893 30.685C264.852 26.4253 262.729 24.2077 258.425 23.9844C254.178 23.777 249.925 23.6047 245.676 23.6302C242.648 23.6493 241.093 22.3092 241.093 19.3642C241.093 16.3712 242.378 14.4759 245.749 14.7695C251.95 15.3087 258.219 15.4395 264.341 16.451C271.606 17.6507 275.316 22.5485 275.386 29.8745C275.437 35.2637 275.386 40.6561 275.386 46.0484C275.386 54.7305 271.298 59.6378 262.652 61.364C261.411 61.6623 260.144 61.845 258.869 61.9096C253.058 61.9671 247.243 61.9352 241.413 61.9352L241.435 62.0851Z" fill="#ADADAD"/>
<path d="M57.846 35.7614C52.0918 26.9198 46.8741 18.8951 41.2818 10.2992C37.1558 16.5244 33.2806 22.3602 29.4434 28.2312C22.8514 38.314 16.2245 48.3744 9.76572 58.5433C7.90586 61.4469 5.89366 62.6307 2.8214 60.5822C-0.17469 58.5848 -0.0350416 56.3673 1.90734 53.4222C12.6983 37.1079 23.2672 20.6596 33.9915 4.30697C37.5843 -1.16836 44.9603 -1.18751 48.5118 4.23677C59.3028 20.7138 69.989 37.2642 80.8213 53.7157C82.6526 56.4981 82.7256 58.6391 79.8469 60.5248C76.8318 62.5095 74.645 61.6767 72.8391 58.6486C70.665 55.0016 68.1355 51.562 65.9805 47.899C64.676 45.691 63.0955 44.8295 60.4961 44.8742C51.292 45.0209 42.0594 44.8199 32.8458 44.989C29.3863 45.0529 27.7867 43.7319 27.847 40.3401C27.9073 36.9483 29.5862 35.6465 32.9854 35.7135C40.9104 35.8699 48.8355 35.7614 57.846 35.7614Z" fill="#ADADAD"/>
<path d="M183.494 14.7375C183.494 11.6744 183.526 9.01331 183.494 6.35542C183.443 2.635 185.874 1.88837 188.848 1.92027C191.755 1.95537 194.301 2.55842 194.244 6.33308C194.19 9.00055 194.244 11.668 194.244 15.0119C199.468 15.0119 204.368 15.1396 209.256 14.9704C212.614 14.8524 214.458 16.2467 214.508 19.5428C214.559 22.7942 212.864 24.4055 209.465 24.3289C204.543 24.2109 199.626 24.297 194.247 24.297C194.247 35.4295 194.269 46.0228 194.247 56.6193C194.247 60.812 192.723 62.2159 188.601 62.0851C185.249 61.983 183.418 60.6684 183.484 56.9097C183.646 47.698 183.535 38.4863 183.535 29.2714V24.5363C179.844 24.1375 175.832 24.8554 175.794 19.68C175.715 14.4089 179.479 14.5429 183.494 14.7375Z" fill="#ADADAD"/>
<path d="M293.125 32.092C293.125 40.4614 293.001 48.8371 293.176 57.2032C293.252 61.1279 291.106 62.0851 287.86 62.0851C284.613 62.0851 282.334 60.9938 282.334 57.2064C282.357 40.321 282.357 23.4355 282.334 6.55006C282.334 2.66373 284.873 1.89157 288.047 1.90433C291.398 1.90433 293.274 3.1232 293.185 6.96167C292.982 15.3278 293.125 23.7035 293.125 32.092Z" fill="#ADADAD"/>
<path d="M121.125 43.4639C121.125 39.3574 121.1 35.2509 121.125 31.1412C121.185 23.3973 125.251 17.9953 132.716 16.5946C137.578 15.6849 142.516 15.2426 147.461 15.2736C148.788 15.2736 150.816 17.6029 151.241 19.2046C151.835 21.4381 150.924 23.8089 147.842 23.9237C145.011 24.0258 142.168 23.844 139.349 24.0514C133.76 24.4598 131.849 26.5338 131.815 32.1335C131.764 40.2093 131.814 48.2819 131.792 56.3577C131.776 60.6365 130.11 62.3468 126.006 62.3436C122.198 62.3436 120.862 60.3525 121.065 56.6353C121.306 52.2576 121.125 47.8576 121.125 43.4639Z" fill="#ADADAD"/>
<path d="M87.9398 43.515C87.9398 39.4021 87.9017 35.2925 87.9398 31.1828C88.0286 23.4292 92.0657 18.0656 99.575 16.6202C104.412 15.6853 109.398 15.43 114.33 15.1142C117.25 14.9291 118.285 17.0286 118.266 19.5812C118.247 22.1338 117.329 24.0036 114.302 23.9749C111.467 23.9493 108.617 23.8472 105.805 24.0993C100.683 24.5524 98.8228 26.6519 98.8228 31.7348C98.8006 39.8169 98.8228 47.8959 98.8228 55.9845C98.8228 60.6079 97.2359 62.299 92.9449 62.366C89.2315 62.4234 87.9556 60.8855 87.9429 56.3035C87.9324 52.0322 87.9313 47.7694 87.9398 43.515Z" fill="#ADADAD"/>
<path d="M168.571 38.0301C168.571 44.268 168.456 50.5123 168.612 56.747C168.707 60.6908 166.708 62.0915 163.15 62.082C159.659 62.082 157.611 60.828 157.659 56.8077C157.803 44.4701 157.803 32.1325 157.659 19.7949C157.618 15.8193 159.452 14.543 163.093 14.543C166.733 14.543 168.71 15.7491 168.609 19.7375C168.463 25.8318 168.571 31.9326 168.571 38.0301Z" fill="#ADADAD"/>
<path d="M156.726 7.41157C156.834 4.22082 159.624 2.16597 163.687 2.27765C167.076 2.37337 169.663 4.65157 169.663 7.57111C169.663 10.7395 166.733 13.0273 162.855 12.9124C159.034 12.7976 156.615 10.6247 156.726 7.41157Z" fill="#ADADAD"/>
</g>
<defs>
<clipPath id="clip0_135_1716">
<rect width="292.68" height="62.1622" fill="white" transform="translate(0.498047 0.18457)"/>
</clipPath>
</defs>
</svg>
