<svg width="409" height="80" viewBox="0 0 409 80" fill="none" xmlns="http://www.w3.org/2000/svg">
<path d="M369.181 35.0957C370.955 27.3984 376.67 25.5754 380.612 25.5754C385.735 25.5754 390.465 28.4112 391.648 35.0957H369.181ZM401.107 43.198C401.304 41.7801 401.698 40.1596 401.698 38.134C401.698 27.601 394.012 16.2577 380.612 16.2577C367.802 16.2577 359.131 26.7908 359.131 38.7417C359.131 50.8952 368.196 60.8206 380.612 60.8206C390.268 60.8206 397.954 53.731 400.319 46.2364H390.071C388.297 49.6799 384.947 51.5029 380.612 51.5029C373.714 51.5029 369.773 45.6287 369.378 42.9954H401.107V43.198ZM354.401 29.0189C354.007 20.714 347.306 16.2577 341.197 16.2577C334.694 16.2577 327.599 21.1191 327.599 29.2215C327.599 36.1085 332.132 39.5519 336.664 41.1724C343.562 43.6031 345.927 44.4134 345.927 47.4517C345.927 49.2748 344.744 51.7055 341.591 51.7055C337.65 51.7055 336.664 48.262 336.27 46.4389H326.22C326.417 49.0722 326.811 52.3131 329.373 55.5541C332.526 59.6052 337.453 61.0231 341.591 61.0231C348.489 61.0231 355.78 55.7566 355.78 46.4389C355.78 37.9315 349.474 35.5008 344.35 33.8803C339.226 32.0573 337.453 31.6522 337.453 29.2215C337.453 27.3984 338.832 25.5754 341.197 25.5754C342.182 25.5754 344.35 25.778 345.139 29.2215H354.401V29.0189ZM289.958 35.0957C291.732 27.3984 297.447 25.5754 301.388 25.5754C306.512 25.5754 311.242 28.4112 312.424 35.0957H289.958ZM321.884 43.198C322.081 41.7801 322.475 40.1596 322.475 38.134C322.475 27.601 314.789 16.2577 301.388 16.2577C288.579 16.2577 279.908 26.7908 279.908 38.7417C279.908 50.8952 288.973 60.8206 301.388 60.8206C311.045 60.8206 318.731 53.731 321.096 46.2364H310.848C309.074 49.6799 305.724 51.5029 301.388 51.5029C294.491 51.5029 290.549 45.6287 290.155 42.9954H321.884V43.198ZM237.734 59.6052H247.391V39.7545C247.391 36.311 247.391 31.8547 249.164 29.2215C250.938 26.3856 254.091 25.5754 255.865 25.5754C264.142 25.5754 264.142 35.5008 264.142 38.9443V59.6052H273.798V36.9187C273.798 33.6778 273.798 26.5882 270.054 22.1319C266.704 17.8782 261.383 16.2577 257.835 16.2577C251.726 16.2577 248.376 19.7012 246.602 21.3217V17.6756H237.537V59.6052H237.734ZM221.377 38.134C221.377 46.4389 215.662 51.7055 209.75 51.7055C203.838 51.7055 197.531 46.8441 197.531 38.3366C197.531 30.4368 203.641 25.5754 209.356 25.5754C216.647 25.3729 221.377 32.2598 221.377 38.134ZM221.574 17.6756V22.7396H221.377C220.195 21.1191 216.844 16.2577 208.37 16.2577C198.123 16.2577 187.678 25.1703 187.678 38.134C187.678 52.1106 198.517 60.8206 208.567 60.8206C216.844 60.8206 220.589 55.9592 221.968 54.1362L222.165 54.3387C221.574 63.4539 215.268 67.3025 209.75 67.3025C208.173 67.3025 203.444 67.3025 199.699 62.6436H188.466C192.013 71.9613 200.487 76.4176 208.962 76.4176C216.647 76.4176 231.231 71.7588 231.231 51.7055V17.6756H221.574ZM172.7 38.5392C172.7 46.2364 167.576 51.7055 160.876 51.7055C153.978 51.7055 148.855 45.8313 148.855 38.7417C148.855 32.4624 152.993 25.3729 160.876 25.3729C166.591 25.3729 172.7 29.8291 172.7 38.5392ZM181.963 17.6756H173.094V22.9422H172.897C172.7 22.3345 167.773 16.2577 159.496 16.2577C148.263 16.2577 139.198 25.5754 139.198 38.3366C139.198 52.3131 148.46 60.8206 158.905 60.8206C164.029 60.8206 170.138 57.9848 173.094 54.3387V59.6052H181.963V17.6756ZM123.432 59.6052H133.089V3.6991H123.432V59.6052ZM105.893 59.6052H115.549V3.6991H105.893V59.6052ZM89.1416 38.5392C89.1416 46.2364 84.0178 51.7055 77.3173 51.7055C70.4198 51.7055 65.2959 45.8313 65.2959 38.7417C65.2959 32.4624 69.4344 25.3729 77.3173 25.3729C83.0324 25.3729 89.1416 29.8291 89.1416 38.5392ZM98.404 17.6756H89.5358V22.9422H89.3387C89.1416 22.3345 84.2148 16.2577 75.9378 16.2577C64.7047 16.2577 55.6393 25.5754 55.6393 38.3366C55.6393 52.3131 64.9017 60.8206 75.3466 60.8206C80.4705 60.8206 86.5797 57.9848 89.5358 54.3387V59.6052H98.404V17.6756ZM17.2103 38.3366C17.2103 32.4624 21.94 25.5754 29.2317 25.5754C36.1292 25.5754 41.2531 31.8547 41.2531 38.7417C41.2531 45.021 36.5233 51.908 29.2317 51.908C22.9253 51.7055 17.2103 46.0338 17.2103 38.3366ZM50.3184 3.6991H40.6618V21.3217C37.7058 18.2833 34.1585 16.2577 28.2463 16.2577C18.5898 16.2577 7.55371 24.5626 7.55371 38.5392C7.55371 52.1106 17.9985 60.8206 28.2463 60.8206C35.1438 60.8206 39.4794 57.3771 41.2531 54.3387H41.4501V59.4027H50.3184V3.6991Z" fill="#ADADAD"/>
</svg>
