<svg width="276" height="83" viewBox="0 0 276 83" fill="none" xmlns="http://www.w3.org/2000/svg">
<path d="M169.886 36.166C167.931 33.0245 165.655 30.3625 162.628 28.4352C151.513 21.3615 132.116 24.422 127.088 42.1874C125.242 48.7412 125.267 55.2795 127.811 61.6434C131.69 71.3543 140.557 76.7561 151.473 76.2331C161.654 75.7443 169.235 69.6232 171.71 59.8532C172.022 58.6701 172.121 57.4402 172.349 56.0392H154.811V49.6379H179.945C179.945 51.6336 180.082 53.6854 179.917 55.7123C179.438 61.5811 177.738 67.0671 174.173 71.8431C169.989 77.4473 164.303 80.7009 157.513 82.0926C150.473 83.5373 143.478 83.3909 136.768 80.648C127.235 76.753 121.201 69.645 118.968 59.6414C116.686 49.367 117.788 39.4662 124.099 30.6458C129.056 23.7152 135.896 19.7954 144.337 18.7617C151.983 17.8277 159.422 18.4255 166.333 22.2052C170.194 24.313 173.946 27.9153 175.886 31.2996L169.886 36.166Z" fill="#ADADAD"/>
<path d="M58.3906 19.8763C65.5049 19.8763 72.4448 19.7113 79.3722 19.9479C82.9352 20.0401 86.4739 20.5628 89.9113 21.5046C98.629 23.9954 104.305 29.911 106.926 38.4823C109.987 48.4672 109.772 58.4085 104.688 67.7675C100.712 75.0966 94.3137 79.5987 86.0662 80.4175C78.2638 81.2052 70.3619 81.0184 62.5035 81.2426C61.1678 81.2831 59.8322 81.2426 58.3906 81.2426V19.8763ZM65.6699 74.2498C65.8626 74.318 66.0619 74.366 66.2646 74.393C71.8003 74.2716 77.3547 74.393 82.8687 73.954C90.3908 73.3749 95.9452 69.5951 98.8376 62.512C101.911 54.9992 101.992 47.2841 99.3202 39.6654C97.0473 33.1863 92.5577 28.8431 85.6427 27.4762C79.1543 26.1904 72.5662 26.4706 65.9999 26.592C65.919 26.592 65.8349 26.6979 65.6699 26.81V74.2498Z" fill="#ADADAD"/>
<path d="M236.072 19.5586C243.32 19.7205 250.425 19.6613 257.499 20.0972C264.237 20.5113 269.38 25.9848 270.087 33.1302C270.333 35.6209 270.398 38.23 269.937 40.671C268.732 47.1594 264.258 50.9952 257.649 51.6553C256.067 51.814 254.479 51.9355 252.605 52.0974L275.928 81.2363C272.739 81.2363 269.922 81.2736 267.104 81.1989C266.699 81.1989 266.22 80.7163 265.927 80.3396C258.997 71.3188 252.073 62.2898 245.157 53.2525C244.715 52.6796 244.083 52.2562 243.538 51.7642L243.102 52.06V81.1148H236.072V19.5586ZM243.174 46.7734C247.844 46.4402 252.39 46.3157 256.873 45.7335C260.058 45.3225 262.3 43.2738 262.727 39.9736C262.994 37.6795 262.994 35.362 262.727 33.0679C262.415 29.9544 260.494 27.8871 257.524 26.9531C252.854 25.4804 248.034 25.9287 243.165 25.935L243.174 46.7734Z" fill="#ADADAD"/>
<path d="M191.09 19.783H223.408V26.3835H198.404V44.0804H223.367V50.902H198.413V74.502H223.367V81.1586C222.798 81.1897 222.29 81.2396 221.783 81.2396C212.044 81.2396 202.305 81.224 192.563 81.2613C191.439 81.2613 191.05 80.9749 191.053 79.7887C191.09 60.342 191.103 40.8953 191.09 21.4487V19.783Z" fill="#ADADAD"/>
<rect x="0.792969" y="40.475" width="4.0475" height="40.7863" fill="#ADADAD"/>
<rect x="26.0117" y="18.9921" width="4.0475" height="62.2692" fill="#ADADAD"/>
<rect x="13.8691" width="2.17942" height="81.2613" fill="#ADADAD"/>
<rect x="40.333" y="10.2744" width="2.17942" height="70.9869" fill="#ADADAD"/>
</svg>
