<svg width="298" height="87" viewBox="0 0 298 87" fill="none" xmlns="http://www.w3.org/2000/svg">
<rect x="7.62695" y="2.37244" width="282.712" height="82.3649" fill="#ADADAD"/>
<path d="M0.503906 43.4807V86.8151H148.909H297.314V43.4807V0.146423H148.909H0.503906V43.4807ZM25.3173 25.3159L25.436 37.5445H32.2626H39.0893V25.3753V13.2061H45.6191H52.1489L52.0302 43.5995L51.8521 74.0522H45.6191H39.3861L39.208 61.7049L39.0893 49.417H32.2626H25.436L25.3173 61.7049L25.1392 74.0522H18.9062H12.6731L12.495 44.0744C12.4357 27.5717 12.495 13.7997 12.6138 13.5029C12.7325 13.1467 15.3444 12.9686 18.9655 13.028L25.1392 13.0874L25.3173 25.3159ZM100.47 43.2433C104.922 59.5679 108.543 73.2805 108.543 73.696C108.543 74.1709 106.94 74.349 102.488 74.2303L96.3737 74.0522L94.949 68.8284L93.4649 63.6045L85.5104 63.7826L77.4965 63.9607L75.9531 69.0064L74.3503 74.0522L68.2954 74.2303C63.1309 74.349 62.2405 74.2303 62.2405 73.4586C62.2405 72.9837 63.5464 68.0566 65.1492 62.5953C66.752 57.134 70.3731 44.668 73.2225 34.8732C76.0125 25.0785 78.565 16.2335 78.9212 15.165L79.5148 13.2654L85.5698 13.0874C88.894 12.9686 91.8028 13.028 92.0402 13.2061C92.2183 13.3842 96.0175 26.8594 100.47 43.2433ZM155.023 17.5989L159.594 21.6949V30.9553C159.594 40.1565 159.594 40.1565 157.992 41.8186L156.389 43.4807L157.992 45.1429C159.594 46.805 159.594 46.805 159.594 56.0655V65.326L154.608 69.8375L149.621 74.349L134.306 74.2303L118.931 74.0522L118.753 44.0744C118.694 27.5717 118.753 13.7997 118.872 13.5029C118.991 13.1467 124.571 13.028 134.781 13.2061L150.453 13.5029L155.023 17.5989ZM183.933 25.3753C186.723 32.0832 189.097 37.5445 189.275 37.5445C189.453 37.5445 192.006 32.0832 194.915 25.3753L200.257 13.2061H206.372C209.696 13.2061 212.427 13.3842 212.427 13.6216C212.427 13.7997 208.568 22.704 203.819 33.3892L195.212 52.7412V63.5451V74.4084L189.157 74.2303L183.042 74.0522L182.745 62.4766L182.449 50.901L179.955 45.2616C178.65 42.1748 176.394 36.9509 175.028 33.686C173.663 30.4211 171.229 24.663 169.626 20.8044C168.024 17.0053 166.718 13.681 166.718 13.3842C166.718 13.1467 169.448 12.9686 172.832 13.0874L178.946 13.2654L183.933 25.3753ZM259.916 18.8455V24.4849H253.683H247.45V49.417V74.349H241.217H234.984V49.417V24.4849H229.048H223.112V18.6674V12.9093L241.514 13.0874L259.916 13.2654V18.8455ZM284.848 42.5903V48.8233H278.615H272.382V42.5903V36.3573H278.615H284.848V42.5903ZM284.848 67.8192V74.349H278.615H272.382V68.2347C272.382 64.8511 272.56 61.883 272.798 61.7049C272.976 61.4675 275.825 61.2894 279.031 61.2894H284.848V67.8192Z" fill="white"/>
<path d="M83.4327 43.1245C82.2455 47.1611 81.2363 50.7822 81.2363 51.1384C81.2363 51.5539 82.8391 51.7914 85.6885 51.7914C88.1223 51.7914 90.1406 51.732 90.1406 51.6133C90.1406 51.1384 85.9259 36.1198 85.7478 35.9417C85.6885 35.823 84.62 39.0879 83.4327 43.1245Z" fill="#ADADAD"/>
<path d="M131.693 31.0147V37.5446H139.41H147.127V31.0147V24.4849H139.41H131.693V31.0147Z" fill="white"/>
<path d="M131.693 55.9466V62.4764H139.41H147.127V55.9466V49.4168H139.41H131.693V55.9466Z" fill="white"/>
</svg>
