<svg width="282" height="76" viewBox="0 0 282 76" fill="none" xmlns="http://www.w3.org/2000/svg">
<path d="M13.6178 38.8792C14.2231 41.2296 15.0842 43.3181 16.3777 45.1483C17.5846 46.9748 19.2239 48.5429 21.292 49.6745C23.2736 50.8024 25.774 51.3264 28.6203 51.3264C31.4665 51.3264 33.9633 50.8061 35.9449 49.6745C37.9107 48.5727 39.5938 47.0213 40.8593 45.1446C42.1051 43.2187 43.0369 41.1033 43.6191 38.8792C44.2208 36.5287 44.4838 34.1783 44.4838 31.6532C44.4838 29.0408 44.2208 26.603 43.6191 24.1652C43.0138 21.7275 42.1527 19.639 40.8593 17.7252C39.6161 15.8291 37.9278 14.2729 35.9449 13.1953C33.9633 12.0673 31.4629 11.5434 28.6203 11.5434C25.774 11.5434 23.2736 12.0637 21.292 13.1953C19.3262 14.2971 17.6432 15.8485 16.3777 17.7252C15.1155 19.7052 14.1832 21.8807 13.6178 24.1652C13.0251 26.6156 12.7359 29.1308 12.7568 31.6532C12.7568 34.1783 13.099 36.5287 13.6178 38.8792ZM1.98053 19.4643C3.20553 15.8514 5.10898 12.5109 7.58662 9.62594C10.0005 6.84615 13.0162 4.66671 16.5506 3.01121C20.1715 1.44667 24.1347 0.660767 28.6203 0.660767C33.1022 0.660767 37.1519 1.44304 40.6899 3.01121C44.2207 4.57575 47.24 6.75519 49.6539 9.62594C52.1302 12.5112 54.0325 15.8517 55.2564 19.4643C56.5905 23.386 57.2604 27.5067 57.238 31.6532C57.2533 35.7421 56.5834 39.8042 55.2564 43.6674C54.051 47.2362 52.1455 50.5229 49.6539 53.3312C47.24 56.1146 44.2208 58.2067 40.6863 59.7712C37.1555 61.3358 33.1022 62.1217 28.6167 62.1217C24.1347 62.1217 20.1715 61.3394 16.6371 59.7712C13.2287 58.2923 10.1716 56.0969 7.66948 53.3312C5.25915 50.6314 3.36043 47.3241 2.067 43.6674C0.669944 39.8203 -0.0305594 35.7508 -0.00105872 31.6532C-0.00105872 27.3016 0.687092 23.2083 1.98053 19.4643ZM90.943 34.4403C90.644 32.8781 90.0282 31.3952 89.1343 30.085C88.356 28.864 87.3277 27.8256 86.1187 27.0396C84.7494 26.2673 83.2012 25.8768 81.6331 25.9081C79.9109 25.9081 78.4446 26.2537 77.2376 27.036C75.9834 27.7956 74.9214 28.8395 74.1355 30.085C73.3111 31.4329 72.6996 32.9023 72.3232 34.4403C71.9433 36.1548 71.7417 37.9047 71.7216 39.6614C71.7216 41.4043 71.8945 43.1435 72.3232 44.799C72.6691 46.4508 73.2708 47.9317 74.1355 49.1506C74.9101 50.4568 75.9442 51.4137 77.2376 52.1996C78.4446 52.9819 79.9109 53.3275 81.6331 53.3275C83.3589 53.3275 84.8253 52.9819 86.1187 52.1996C87.3469 51.4364 88.38 50.3918 89.1343 49.1506C89.9089 47.9317 90.5142 46.4508 90.9466 44.799C91.2888 43.1435 91.5482 41.488 91.5482 39.6614C91.4945 37.9068 91.292 36.16 90.943 34.4403ZM72.1503 2.0543V23.4703H72.3232C73.6954 21.2947 75.7184 19.6175 78.0987 18.6821C80.472 17.674 83.0254 17.1699 85.5999 17.2012C87.7544 17.2012 89.8225 17.6378 91.8941 18.5074C93.9622 19.3807 95.8573 20.7706 97.4966 22.5097C99.1323 24.3399 100.512 26.603 101.55 29.4774C102.584 32.2608 103.099 35.6555 103.099 39.5741C103.099 43.4928 102.584 46.8001 101.55 49.6745C100.512 52.4579 99.1359 54.8084 97.4966 56.6385C95.9478 58.3776 94.0336 59.745 91.8941 60.6408C89.9043 61.4994 87.7637 61.9448 85.5999 61.9507C82.4978 61.9507 79.738 61.4267 77.3241 60.4698C74.9326 59.5293 72.9686 57.7312 71.808 55.4196H71.6351V60.8155H60.5995V2.0543H72.1503ZM107.412 2.0543H118.963V11.7181H107.412V2.0543ZM102.926 66.0403C104.133 66.0403 105.167 65.7783 106.032 65.3417C106.893 64.9051 107.412 63.8645 107.412 62.2963V18.2455H118.963V62.8166C118.963 64.9961 118.703 66.9099 118.271 68.4781C117.845 69.9904 117.044 71.368 115.943 72.4804C114.826 73.5283 113.36 74.3105 111.461 74.8308C109.566 75.3548 107.152 75.6167 104.22 75.6167C102.975 75.6426 101.731 75.5254 100.512 75.2674V65.7783C101.031 65.953 101.892 66.0403 102.926 66.0403ZM150.347 28.2585C148.967 26.6903 146.899 25.9917 144.053 25.9917C142.244 25.9917 140.692 26.341 139.485 26.9523C138.278 27.5599 137.244 28.3458 136.552 29.3027C135.822 30.159 135.293 31.17 135.003 32.2608C134.743 33.3051 134.484 34.262 134.484 35.0479H153.276C152.761 31.9988 151.727 29.7357 150.347 28.2585ZM137.33 50.6314C139.052 52.3706 141.553 53.1565 144.831 53.1565C147.155 53.1565 149.14 52.5452 150.863 51.4137C152.588 50.1948 153.622 48.9759 153.968 47.6697H164.139C162.5 52.8072 160.003 56.4639 156.638 58.6397C153.276 60.8155 149.227 61.9507 144.399 61.9507C141.12 61.9507 138.105 61.4267 135.431 60.3825C132.886 59.3937 130.59 57.8465 128.708 55.8526C126.85 53.7938 125.388 51.4023 124.399 48.8013C123.365 46.0178 122.933 43.0561 122.933 39.7488C122.933 36.5287 123.452 33.567 124.482 30.8709C125.468 28.2207 126.963 25.7934 128.881 23.7286C130.802 21.6996 133.121 20.0984 135.691 19.0277C138.474 17.8513 141.465 17.2595 144.482 17.2885C148.106 17.2885 151.208 17.9835 153.882 19.377C156.555 20.7706 158.71 22.688 160.432 25.0348C162.158 27.3853 163.365 30.085 164.139 33.1304C164.914 36.1794 165.173 39.3158 164.914 42.6232H134.484C134.57 46.1889 135.518 48.8886 137.33 50.6278V50.6314ZM187.76 25.9081C185.951 25.9081 184.398 26.3447 183.105 27.2143C181.846 28.0501 180.81 29.186 180.089 30.5216C179.264 31.8807 178.708 33.388 178.45 34.9606C178.113 36.534 177.94 38.1389 177.935 39.7488C177.935 41.3133 178.108 42.8815 178.45 44.4497C178.796 46.0142 179.315 47.4987 180.003 48.8049C180.694 50.1075 181.728 51.1554 182.935 51.934C184.142 52.7199 185.692 53.1565 187.504 53.1565C190.26 53.1565 192.418 52.3706 193.881 50.8061C195.347 49.2415 196.295 47.1494 196.727 44.537H207.846C207.071 50.1948 204.917 54.4627 201.296 57.4208C197.675 60.3825 193.106 61.8597 187.504 61.8597C184.53 61.8949 181.575 61.3642 178.796 60.2952C176.122 59.2509 173.881 57.7701 172.073 55.7689C170.197 53.7889 168.731 51.4511 167.76 48.8922C166.702 46.085 166.176 43.1017 166.211 40.0981C166.211 36.7871 166.726 33.7417 167.677 30.9582C168.566 28.2503 170.004 25.7594 171.9 23.6449C173.708 21.5528 176.036 19.9883 178.623 18.8567C181.296 17.7252 184.315 17.1139 187.76 17.1139C190.204 17.1207 192.638 17.4422 195.001 18.0708C197.329 18.7694 199.397 19.7263 201.209 21.0325C203.018 22.3387 204.488 24.0779 205.691 26.0827C206.812 28.0839 207.503 30.4343 207.673 33.2214H196.381C195.517 28.3458 192.674 25.9081 187.763 25.9081H187.76ZM233.444 18.2455V26.0827H224.999V47.1494C224.999 49.1506 225.345 50.4568 225.95 51.068C226.638 51.7593 227.932 52.0249 229.827 52.0249C230.519 52.0249 231.124 52.025 231.726 51.9376C232.327 51.8503 232.933 51.763 233.448 51.6757V60.7282C232.363 60.9013 231.27 61.0179 230.173 61.0774C228.966 61.1648 227.845 61.1648 226.638 61.1648C224.936 61.1847 223.235 61.0679 221.551 60.8155C219.915 60.5535 218.536 60.1205 217.329 59.3346C216.122 58.6433 215.174 57.5954 214.396 56.2892C213.708 54.983 213.362 53.2438 213.362 51.068V26.0827H206.379V18.2455H213.362V5.53631H224.999V18.2455H233.444ZM269.466 60.8155V23.4739H255.155V14.6761C257.119 14.7507 259.085 14.6043 261.017 14.2395C262.817 13.9319 264.544 13.2825 266.104 12.3257C267.604 11.4213 268.897 10.206 269.898 8.75999C270.932 7.27549 271.62 5.44898 271.966 3.27318H281.017V60.9064H269.466V60.8155Z" fill="#ADADAD"/>
</svg>
